<?xml version="1.0" encoding="utf-8"?>
<!-- Generator: Adobe Illustrator 24.1.3, SVG Export Plug-In . SVG Version: 6.00 Build 0)  -->
<svg version="1.1" id="Layer_1" xmlns="http://www.w3.org/2000/svg" xmlns:xlink="http://www.w3.org/1999/xlink" x="0px" y="0px"
	 viewBox="0 0 107.9 30" style="enable-background:new 0 0 107.9 30;" xml:space="preserve">
<style type="text/css">
	.st0{fill:#00BCD4;}
	.st1{fill:#3F51B5;}
	.st2{enable-background:new    ;}
	.st3{fill:#2F2F2F;}
</style>
<path class="st0" d="M30.6,21.1C30.6,21.2,30.6,21.2,30.6,21.1c-0.2,0.3-0.3,0.6-0.4,0.8c-0.1,0.2-0.2,0.3-0.3,0.5
	c-0.1,0.2-0.2,0.4-0.4,0.6c-0.2,0.3-0.3,0.5-0.5,0.8l0,0c-0.2,0.2-0.4,0.5-0.6,0.7c-0.1,0.1-0.1,0.2-0.2,0.2c-0.5,0.5-1,1-1.5,1.4
	c-0.1,0.1-0.2,0.2-0.4,0.3c-1,0.8-2.2,1.5-3.3,2c-2.8,1.2-5.7,1.5-8.6,0.9s-5.5-2-7.6-4s-3.4-4.7-4-7.6s-0.3-5.8,0.8-8.5
	s3-5,5.4-6.6c0.6-0.4,1.2-0.7,1.8-1c3-1.6,6.5,0.8,6.5,4.1c0,0.9-0.3,1.7-0.7,2.5c-0.5,0.7-1.1,1.3-1.9,1.7
	c-0.2,0.1-0.3,0.2-0.5,0.3c-0.9,0.6-1.7,1.5-2.1,2.6c-0.4,1-0.5,2.2-0.3,3.2s0.8,2.1,1.6,2.9c0.8,0.8,1.8,1.3,2.9,1.6
	c1.1,0.2,2.3,0.1,3.2-0.3c0.5-0.2,1-0.5,1.4-0.9c0.1-0.1,0.3-0.2,0.4-0.3c0.1-0.1,0.3-0.3,0.4-0.5c0.1-0.1,0.2-0.3,0.3-0.4
	c0-0.1,0.1-0.2,0.2-0.3c0.1-0.1,0.1-0.2,0.1-0.3c0.8-1.6,2.4-2.7,4.1-2.7C29.7,14.7,32,18.1,30.6,21.1z"/>
<path class="st1" d="M30.6,21.1C30.6,21.2,30.6,21.2,30.6,21.1c-0.2,0.3-0.3,0.6-0.4,0.8c-0.1,0.2-0.2,0.3-0.3,0.5
	c-0.1,0.2-0.2,0.4-0.4,0.6c-0.2,0.3-0.3,0.5-0.5,0.8l0,0c-0.2,0.2-0.4,0.5-0.6,0.7c-0.1,0.1-0.1,0.2-0.2,0.2c-0.5,0.5-1,1-1.5,1.4
	c-0.1,0.1-0.2,0.2-0.3,0.3l0,0l-5.6-7.2L21,19c0.1-0.1,0.3-0.2,0.4-0.3c0.1-0.1,0.3-0.3,0.4-0.5c0.1-0.1,0.2-0.3,0.3-0.4
	c0-0.1,0.1-0.2,0.2-0.3c0.1-0.1,0.1-0.2,0.1-0.3c0.8-1.6,2.4-2.7,4.1-2.7C29.7,14.7,32,18.1,30.6,21.1z"/>
<circle class="st1" cx="25.9" cy="6.8" r="3.4"/>
<g class="st2">
	<path class="st3" d="M44.9,15.8h3.3c-0.4,3.3-2.9,5.6-6.5,5.6c-3.9,0-6.8-2.8-6.8-6.7S37.8,8,41.7,8c3.5,0,6.1,2.3,6.5,5.6h-3.3
		C44.5,12,43.4,11,41.7,11c-2.1,0-3.6,1.6-3.6,3.7s1.5,3.7,3.6,3.7C43.4,18.5,44.5,17.5,44.9,15.8z"/>
	<path class="st3" d="M53.4,21.2h-3.2V8.3h3.2V21.2z"/>
	<path class="st3" d="M58.9,17.5v3.7h-3.2V8.3h5.7c3.2,0,5.3,1.7,5.3,4.5c0,1.8-0.9,3.2-2.5,4l3.3,4.4h-3.9l-2.8-3.7
		C60.8,17.5,58.9,17.5,58.9,17.5z M61.2,14.6c1.2,0,2.2-0.7,2.2-1.7s-1-1.7-2.2-1.7h-2.4v3.5h2.4V14.6z"/>
	<path class="st3" d="M71.9,17.5v3.7h-3.2V8.3h5.7c3.2,0,5.3,1.7,5.3,4.5c0,1.8-0.9,3.2-2.5,4l3.3,4.4h-3.9l-2.8-3.7
		C73.8,17.5,71.9,17.5,71.9,17.5z M74.3,14.6c1.2,0,2.2-0.7,2.2-1.7s-1-1.7-2.2-1.7h-2.4v3.5h2.4V14.6z"/>
	<path class="st3" d="M93.3,15.2c0,4-2.3,6.3-6,6.3s-6-2.3-6-6.3V8.3h3.2v7c0,2,1.1,3.3,2.8,3.3c1.7,0,2.8-1.3,2.8-3.3v-7h3.2V15.2z
		"/>
	<path class="st3" d="M106,12.3h-3.2c-0.2-1-0.8-1.6-2.1-1.6c-1.1,0-1.8,0.5-1.8,1.3c0,0.7,0.5,1,1.5,1.2l1.8,0.4
		c2.4,0.5,3.9,1.5,3.9,3.7c0,2.6-2.1,4.2-5.4,4.2c-2.9,0-5.5-1.4-5.8-4.6H98c0.2,1.1,1.2,1.8,2.7,1.8c1.2,0,1.8-0.4,1.8-1.1
		c0-0.4-0.3-0.9-1.4-1.1l-2-0.5c-2.5-0.6-3.7-1.7-3.7-3.8c0-2.6,2.1-4.2,5.1-4.2C102.6,8,105.7,8.8,106,12.3z"/>
</g>
</svg>
