<?xml version="1.0" encoding="utf-8"?>
<!-- Generator: Adobe Illustrator 24.1.3, SVG Export Plug-In . SVG Version: 6.00 Build 0)  -->
<svg version="1.1" id="Layer_1" xmlns="http://www.w3.org/2000/svg" xmlns:xlink="http://www.w3.org/1999/xlink" x="0px" y="0px"
	 viewBox="0 0 112 30" style="enable-background:new 0 0 112 30;" xml:space="preserve">
<style type="text/css">
	.st0{fill:#00BCD4;}
	.st1{fill:#3F51B5;}
	.st2{fill:#DAD8F1;}
</style>
<path class="st0" d="M28.5,21.5C28.5,21.6,28.5,21.6,28.5,21.5c-0.2,0.3-0.3,0.6-0.4,0.8c-0.1,0.2-0.2,0.3-0.3,0.5
	c-0.1,0.2-0.2,0.4-0.4,0.6c-0.2,0.3-0.3,0.5-0.5,0.8l0,0c-0.2,0.2-0.4,0.5-0.6,0.7c-0.1,0.1-0.1,0.2-0.2,0.2c-0.5,0.5-1,1-1.5,1.4
	c-0.1,0.1-0.2,0.2-0.4,0.3c-1,0.8-2.2,1.5-3.4,2C18,30,15,30.3,12.1,29.7c-2.9-0.6-5.6-2-7.7-4.1s-3.5-4.8-4.1-7.7
	C-0.3,15,0,12,1.1,9.3s3.1-5.1,5.5-6.7c0.6-0.4,1.2-0.7,1.8-1C11.5,0,15,2.4,15,5.8c0,0.9-0.3,1.7-0.7,2.5C13.8,9,13.2,9.6,12.4,10
	c-0.2,0.1-0.3,0.2-0.5,0.3c-0.9,0.6-1.7,1.5-2.1,2.6c-0.4,1-0.5,2.2-0.3,3.3s0.8,2.1,1.6,2.9s1.8,1.3,2.9,1.6
	c1.1,0.2,2.3,0.1,3.3-0.3c0.5-0.2,1-0.5,1.4-0.9c0.1-0.1,0.3-0.2,0.4-0.3c0.1-0.1,0.3-0.3,0.4-0.5c0.1-0.1,0.2-0.3,0.3-0.4
	c0-0.1,0.1-0.2,0.2-0.3c0.1-0.1,0.1-0.2,0.1-0.3c0.8-1.6,2.4-2.7,4.2-2.7C27.6,15,29.9,18.5,28.5,21.5z"/>
<path class="st1" d="M28.5,21.5C28.5,21.6,28.5,21.6,28.5,21.5c-0.2,0.3-0.3,0.6-0.4,0.8c-0.1,0.2-0.2,0.3-0.3,0.5
	c-0.1,0.2-0.2,0.4-0.4,0.6c-0.2,0.3-0.3,0.5-0.5,0.8l0,0c-0.2,0.2-0.4,0.5-0.6,0.7c-0.1,0.1-0.1,0.2-0.2,0.2c-0.5,0.5-1,1-1.5,1.4
	c-0.1,0.1-0.2,0.2-0.3,0.3l0,0l-5.7-7.3l0.1-0.1c0.1-0.1,0.3-0.2,0.4-0.3c0.1-0.1,0.3-0.3,0.4-0.5c0.1-0.1,0.2-0.3,0.3-0.4
	c0-0.1,0.1-0.2,0.2-0.3c0.1-0.1,0.1-0.2,0.1-0.3c0.8-1.6,2.4-2.7,4.2-2.7C27.6,15,29.9,18.5,28.5,21.5z"/>
<circle class="st1" cx="23.7" cy="7" r="3.5"/>
<g>
	<path class="st2" d="M41.8,11.8c1.7,0,2.9,1,3.3,2.7h3.3c-0.4-3.4-3-5.7-6.6-5.7c-4,0-7,2.9-7,6.8c0,4,3,6.8,7,6.8
		c3.6,0,6.2-2.3,6.6-5.7H45c-0.4,1.6-1.5,2.7-3.3,2.7c-2.1,0-3.6-1.6-3.6-3.8C38.1,13.4,39.6,11.8,41.8,11.8z"/>
	<rect x="50.4" y="9.1" class="st2" width="3.3" height="13.2"/>
	<path class="st2" d="M67.2,13.7c0-2.8-2.2-4.6-5.4-4.6H56v13.2h3.3v-3.8h2l2.8,3.8h3.9l-3.4-4.5C66.2,17,67.2,15.5,67.2,13.7z
		 M61.7,15.5h-2.4v-3.5h2.4c1.3,0,2.3,0.7,2.3,1.7C63.9,14.8,62.9,15.5,61.7,15.5z"/>
	<path class="st2" d="M80.5,13.7c0-2.8-2.2-4.6-5.4-4.6h-5.8v13.2h3.3v-3.8h2l2.8,3.8h3.9L78,17.8C79.5,17,80.5,15.5,80.5,13.7z
		 M75,15.5h-2.4v-3.5H75c1.3,0,2.3,0.7,2.3,1.7C77.2,14.8,76.2,15.5,75,15.5z"/>
	<path class="st2" d="M91,16.1c0,2-1.1,3.3-2.8,3.3s-2.8-1.3-2.8-3.3V9.1h-3.3v7c0,4.1,2.4,6.4,6.1,6.4c3.8,0,6.1-2.3,6.1-6.4v-7H91
		V16.1z"/>
	<path class="st2" d="M103.3,14.4l-1.8-0.4c-1-0.2-1.5-0.5-1.5-1.2c0-0.9,0.8-1.3,1.9-1.3c1.3,0,2,0.7,2.1,1.7h3.3
		c-0.3-3.5-3.5-4.4-5.6-4.4c-3.1,0-5.2,1.7-5.2,4.3c0,2.1,1.2,3.3,3.8,3.9l2.2,0.5c1.1,0.2,1.4,0.7,1.4,1.1c0,0.7-0.6,1.2-1.9,1.2
		c-1.5,0-2.6-0.7-2.8-1.9h-3.3c0.3,3.3,3,4.6,5.9,4.6c3.3,0,5.5-1.6,5.5-4.3C107.3,15.9,105.7,15,103.3,14.4z"/>
</g>
</svg>
