<?xml version="1.0" encoding="utf-8"?>
<!-- Generator: Adobe Illustrator 24.1.3, SVG Export Plug-In . SVG Version: 6.00 Build 0)  -->
<svg version="1.1" id="Layer_1" xmlns="http://www.w3.org/2000/svg" xmlns:xlink="http://www.w3.org/1999/xlink" x="0px" y="0px"
	 viewBox="0 0 111.3 30" style="enable-background:new 0 0 111.3 30;" xml:space="preserve">
<style type="text/css">
	.st0{fill:#00BCD4;}
	.st1{fill:#3F51B5;}
	.st2{enable-background:new    ;}
	.st3{fill:#DAD8F1;}
</style>
<path class="st0" d="M28.5,21.5C28.5,21.6,28.5,21.6,28.5,21.5c-0.2,0.3-0.3,0.6-0.4,0.8c-0.1,0.2-0.2,0.3-0.3,0.5
	c-0.1,0.2-0.2,0.4-0.4,0.6c-0.2,0.3-0.3,0.5-0.5,0.8l0,0c-0.2,0.2-0.4,0.5-0.6,0.7c-0.1,0.1-0.1,0.2-0.2,0.2c-0.5,0.5-1,1-1.5,1.4
	c-0.1,0.1-0.2,0.2-0.4,0.3c-1,0.8-2.2,1.5-3.4,2C18,30,15,30.3,12.1,29.7c-2.9-0.6-5.6-2-7.7-4.1s-3.5-4.8-4.1-7.7
	C-0.3,15,0,12,1.1,9.3s3.1-5.1,5.5-6.7c0.6-0.4,1.2-0.7,1.8-1C11.5,0,15,2.4,15,5.8c0,0.9-0.3,1.7-0.7,2.5C13.8,9,13.2,9.6,12.4,10
	c-0.2,0.1-0.3,0.2-0.5,0.3c-0.9,0.6-1.7,1.5-2.1,2.6c-0.4,1-0.5,2.2-0.3,3.3s0.8,2.1,1.6,2.9s1.8,1.3,2.9,1.6
	c1.1,0.2,2.3,0.1,3.3-0.3c0.5-0.2,1-0.5,1.4-0.9c0.1-0.1,0.3-0.2,0.4-0.3c0.1-0.1,0.3-0.3,0.4-0.5c0.1-0.1,0.2-0.3,0.3-0.4
	c0-0.1,0.1-0.2,0.2-0.3c0.1-0.1,0.1-0.2,0.1-0.3c0.8-1.6,2.4-2.7,4.2-2.7C27.6,15,29.9,18.5,28.5,21.5z"/>
<path class="st1" d="M28.5,21.5C28.5,21.6,28.5,21.6,28.5,21.5c-0.2,0.3-0.3,0.6-0.4,0.8c-0.1,0.2-0.2,0.3-0.3,0.5
	c-0.1,0.2-0.2,0.4-0.4,0.6c-0.2,0.3-0.3,0.5-0.5,0.8l0,0c-0.2,0.2-0.4,0.5-0.6,0.7c-0.1,0.1-0.1,0.2-0.2,0.2c-0.5,0.5-1,1-1.5,1.4
	c-0.1,0.1-0.2,0.2-0.3,0.3l0,0l-5.7-7.3l0.1-0.1c0.1-0.1,0.3-0.2,0.4-0.3c0.1-0.1,0.3-0.3,0.4-0.5c0.1-0.1,0.2-0.3,0.3-0.4
	c0-0.1,0.1-0.2,0.2-0.3c0.1-0.1,0.1-0.2,0.1-0.3c0.8-1.6,2.4-2.7,4.2-2.7C27.6,15,29.9,18.5,28.5,21.5z"/>
<circle class="st1" cx="23.7" cy="7" r="3.5"/>
<g class="st2">
	<path class="st3" d="M43,19.4h3.3c-0.4,3.4-3,5.7-6.6,5.7c-4,0-7-2.9-7-6.8c0-4,3-6.8,7-6.8c3.6,0,6.2,2.3,6.6,5.7H43
		c-0.4-1.6-1.5-2.7-3.3-2.7c-2.1,0-3.6,1.6-3.6,3.8s1.5,3.8,3.6,3.8C41.5,22.1,42.7,21,43,19.4z"/>
	<path class="st3" d="M51.7,24.8h-3.3V11.7h3.3V24.8z"/>
	<path class="st3" d="M57.3,21v3.8H54V11.7h5.8c3.3,0,5.4,1.8,5.4,4.6c0,1.8-0.9,3.3-2.5,4.1l3.4,4.5h-3.9l-2.8-3.8h-2.1V21z
		 M59.7,18.1c1.3,0,2.3-0.7,2.3-1.8s-1-1.7-2.3-1.7h-2.4v3.5C57.3,18.1,59.7,18.1,59.7,18.1z"/>
	<path class="st3" d="M70.5,21v3.8h-3.3V11.7H73c3.3,0,5.4,1.8,5.4,4.6c0,1.8-0.9,3.3-2.5,4.1l3.4,4.5h-3.9l-2.8-3.8h-2.1V21z
		 M73,18.1c1.3,0,2.3-0.7,2.3-1.8s-1-1.7-2.3-1.7h-2.4v3.5C70.6,18.1,73,18.1,73,18.1z"/>
	<path class="st3" d="M92.3,18.7c0,4.1-2.4,6.4-6.1,6.4c-3.8,0-6.1-2.3-6.1-6.4v-7h3.3v7.1c0,2,1.1,3.3,2.8,3.3
		c1.7,0,2.8-1.3,2.8-3.3v-7.1h3.3L92.3,18.7L92.3,18.7z"/>
	<path class="st3" d="M105.2,15.8h-3.3c-0.2-1-0.8-1.7-2.1-1.7c-1.1,0-1.9,0.5-1.9,1.3c0,0.7,0.5,1,1.5,1.2l1.8,0.4
		c2.4,0.5,4,1.5,4,3.8c0,2.6-2.2,4.3-5.5,4.3c-3,0-5.6-1.4-5.9-4.6h3.3c0.2,1.2,1.2,1.9,2.8,1.9c1.2,0,1.9-0.4,1.9-1.2
		c0-0.4-0.3-0.9-1.4-1.1l-2.2-0.5c-2.6-0.6-3.8-1.8-3.8-3.9c0-2.6,2.1-4.3,5.2-4.3C101.7,11.4,104.9,12.2,105.2,15.8z"/>
</g>
<path class="st3" d="M35.5,3.5h0.7l-0.5,2.4l0,0c0.3-0.4,0.8-0.7,1.4-0.7c0.4,0,0.9,0.3,0.9,1C38,6.4,37.5,9,37.5,9H37l0.4-2.1
	c0.2-0.8-0.2-1.1-0.6-1.1c-0.5,0-1,0.5-1.2,1.3l-0.4,2h-0.6L35.5,3.5z"/>
<path class="st3" d="M39.4,5.3l0.4,2c0.1,0.4,0.1,0.7,0.2,1l0,0l1.3-3H42c0,0-1,2.3-1.4,3c-0.4,0.8-0.9,1.4-1.4,1.9
	c-0.4,0.4-0.9,0.6-1.1,0.6L38,10.2c0.2-0.1,0.4-0.2,0.7-0.4c0.2-0.2,0.5-0.5,0.7-0.9c0-0.1,0-0.1,0-0.2l-0.7-3.5L39.4,5.3L39.4,5.3z
	"/>
<path class="st3" d="M41.6,10.6l1-5.2h0.6l-0.1,0.7l0,0c0.3-0.6,0.8-0.9,1.3-0.9c0.8,0,1.1,0.7,1.1,1.3c0,1.3-0.9,2.5-2.2,2.5
	c-0.4,0-0.7-0.1-0.8-0.2l0,0l-0.3,1.8H41.6z M42.6,8.4c0.2,0.1,0.4,0.2,0.7,0.2c0.8,0,1.5-1,1.5-2c0-0.4-0.2-0.9-0.7-0.9
	S43,6.3,42.8,7.3L42.6,8.4z"/>
<path class="st3" d="M48.7,8.8C48.4,9,48,9.1,47.5,9.1c-1,0-1.4-0.7-1.4-1.5c0-1.1,0.8-2.4,2-2.4c0.7,0,1.1,0.5,1.1,1
	c0,1-1.1,1.2-2.5,1.2c0,0.2,0,0.5,0.1,0.7c0.1,0.3,0.4,0.5,0.8,0.5c0.4,0,0.8-0.1,1-0.3L48.7,8.8z M48,5.7c-0.6,0-1.1,0.6-1.2,1.2
	c1,0,1.8-0.1,1.8-0.7C48.5,5.9,48.3,5.7,48,5.7z"/>
<path class="st3" d="M50.1,5.3h0.6l-0.1,0.8l0,0c0.2-0.5,0.6-0.9,1.1-0.9c0.1,0,0.1,0,0.2,0l-0.1,0.6c0,0-0.1,0-0.2,0
	c-0.6,0-1,0.7-1.2,1.5l-0.3,1.6h-0.6L50.1,5.3z"/>
</svg>
